<svg width="142" height="34" viewBox="0 0 142 34" fill="none" xmlns="http://www.w3.org/2000/svg">
<path d="M41.62 6.29001H41.58C41.58 6.04001 41.49 5.83001 41.31 5.66001C41.13 5.49001 40.92 5.40001 40.67 5.40001H40.5V5.26001H41.62V6.29001ZM41.62 14.13V15.16H40.49V15.02H40.67C40.92 15.02 41.13 14.93 41.3 14.76C41.47 14.59 41.57 14.38 41.58 14.13H41.62ZM42.5 5.25001V15.16H41.58V5.25001H42.5ZM44.18 5.25001C44.78 5.25001 45.3 5.36001 45.74 5.58001C46.17 5.80001 46.51 6.11001 46.74 6.52001C46.98 6.93001 47.09 7.42001 47.09 7.98001C47.09 8.41001 47.01 8.80001 46.84 9.15001C46.67 9.50001 46.44 9.78001 46.16 10.02C45.88 10.26 45.56 10.43 45.2 10.55C44.84 10.67 44.47 10.71 44.09 10.68C43.71 10.65 43.34 10.54 42.98 10.35V10.21C43.3 10.26 43.59 10.27 43.84 10.26C44.09 10.25 44.35 10.19 44.63 10.1C44.91 10.01 45.17 9.85001 45.41 9.63001C45.65 9.40001 45.83 9.09001 45.95 8.68001C45.98 8.58001 46 8.45001 46.02 8.29001C46.04 8.13001 46.04 7.98001 46.03 7.83001C46.03 7.18001 45.85 6.66001 45.52 6.26001C45.19 5.86001 44.72 5.67001 44.12 5.67001H42.45C42.4 5.53001 42.36 5.39001 42.31 5.25001H44.18ZM42.46 14.13H42.5C42.5 14.38 42.6 14.59 42.78 14.76C42.96 14.93 43.16 15.02 43.41 15.02H43.59V15.16H42.46V14.13Z" fill="#C8B081"/>
<path d="M51.7 6.29001H51.66C51.66 6.04001 51.56 5.83001 51.38 5.66001C51.21 5.49001 51 5.40001 50.75 5.40001H50.57V5.26H51.7V6.29001ZM51.7 14.13V15.16H50.57V15.02H50.75C51 15.02 51.21 14.93 51.38 14.76C51.55 14.59 51.65 14.38 51.66 14.13H51.7ZM52.57 5.25001V15.16H51.65V5.25001H52.57ZM54.39 5.25001C54.81 5.25001 55.2 5.31001 55.54 5.43001C55.88 5.55001 56.17 5.73001 56.41 5.96001C56.65 6.19001 56.83 6.47001 56.95 6.79001C57.08 7.12001 57.14 7.49001 57.14 7.90001C57.14 8.35001 57.03 8.79 56.82 9.20001C56.61 9.62001 56.32 9.95001 55.96 10.21C55.6 10.47 55.19 10.6 54.74 10.6C54.9 10.67 55.07 10.8 55.26 11C55.45 11.2 55.61 11.4 55.76 11.59C56.01 11.96 56.24 12.27 56.43 12.54C56.62 12.8 56.82 13.06 57.02 13.32C57.22 13.57 57.39 13.78 57.53 13.93C57.72 14.14 57.91 14.32 58.1 14.48C58.29 14.64 58.49 14.77 58.72 14.86C58.94 14.95 59.19 15 59.46 15V15.14H58.68C58.25 15.14 57.87 15.07 57.56 14.94C57.24 14.81 56.98 14.65 56.76 14.45C56.54 14.26 56.36 14.07 56.21 13.89C56.18 13.85 56.1 13.74 55.98 13.56C55.85 13.38 55.7 13.17 55.53 12.92C55.36 12.67 55.18 12.42 55.01 12.18C54.84 11.94 54.69 11.72 54.57 11.55C54.45 11.38 54.38 11.27 54.36 11.25C54.18 11.01 53.98 10.8 53.77 10.6C53.55 10.4 53.32 10.3 53.06 10.3V10.16C53.35 10.16 53.6 10.16 53.81 10.16C54.06 10.16 54.32 10.11 54.62 10.05C54.91 9.98001 55.19 9.85001 55.44 9.64001C55.69 9.43001 55.89 9.12001 56.02 8.69001C56.05 8.59001 56.07 8.46001 56.09 8.3C56.11 8.14 56.11 7.99001 56.1 7.84001C56.1 7.20001 55.93 6.69 55.61 6.3C55.29 5.92 54.87 5.71001 54.34 5.68001C54.08 5.66001 53.8 5.65001 53.53 5.66001C53.25 5.66001 52.92 5.66001 52.55 5.66001C52.55 5.66001 52.54 5.61001 52.51 5.54001C52.49 5.47001 52.45 5.36001 52.4 5.22001H54.4L54.39 5.25001ZM52.53 14.13H52.57C52.57 14.38 52.66 14.59 52.84 14.76C53.02 14.93 53.23 15.02 53.48 15.02H53.65V15.16H52.53V14.13Z" fill="#C8B081"/>
<path d="M62.84 6.29001H62.8C62.8 6.04001 62.7 5.83001 62.52 5.66001C62.35 5.49001 62.14 5.40001 61.89 5.40001H61.71V5.26001H62.84V6.29001ZM62.84 14.13V15.16H61.71V15.02H61.89C62.14 15.02 62.35 14.93 62.52 14.76C62.69 14.59 62.79 14.38 62.8 14.13H62.84ZM63.71 5.25001V15.16H62.79V5.25001H63.71ZM63.67 6.29001V5.26001H64.8V5.40001H64.62C64.37 5.40001 64.16 5.49001 63.99 5.66001C63.82 5.83001 63.72 6.04001 63.71 6.29001H63.67ZM63.67 14.13H63.71C63.71 14.38 63.81 14.59 63.99 14.76C64.17 14.93 64.37 15.02 64.62 15.02H64.8V15.16H63.67V14.13Z" fill="#C8B081"/>
<path d="M70.01 6.27001H68.84C68.7 5.96001 68.51 5.73001 68.27 5.60001C68.03 5.46001 67.81 5.39001 67.59 5.39001H67.48V5.25001H70.66V5.39001H70.53C70.35 5.39001 70.19 5.47001 70.06 5.62001C69.92 5.77001 69.91 5.99001 70.01 6.27001ZM72.81 15.36L68.42 5.34001H69.62L73.09 14.02L72.81 15.36ZM72.81 15.36L72.68 14.37L76.44 5.30001H77.29L73.45 13.9C73.35 14.14 73.26 14.34 73.19 14.51C73.12 14.68 73.06 14.84 73.01 15.01C72.96 15.17 72.93 15.29 72.93 15.36H72.8H72.81ZM76.06 6.27001C76.16 5.99001 76.14 5.77001 76 5.62001C75.86 5.47001 75.7 5.39001 75.52 5.39001H75.39V5.25001H78.23V5.39001H78.1C77.89 5.39001 77.67 5.46001 77.43 5.60001C77.19 5.74001 77 5.97001 76.85 6.29001H76.04L76.06 6.27001Z" fill="#C8B081"/>
<path d="M80.63 14.13C80.56 14.32 80.55 14.48 80.6 14.61C80.65 14.74 80.72 14.84 80.83 14.91C80.94 14.98 81.05 15.02 81.16 15.02H81.29V15.16H78.45V15.02H78.58C78.8 15.02 79.02 14.95 79.25 14.81C79.48 14.67 79.67 14.44 79.82 14.12H80.63V14.13ZM83.67 5.06001L83.8 6.05001L80.25 15.12H79.4L83.02 6.51001C83.12 6.27001 83.21 6.07001 83.28 5.90001C83.35 5.73001 83.41 5.57001 83.46 5.40001C83.51 5.24001 83.54 5.12001 83.54 5.05001H83.67V5.06001ZM85.66 11.3V11.72H81.23V11.3H85.66ZM83.67 5.06001L87.86 15.08H86.66L83.39 6.40001L83.67 5.06001ZM86.3 14.13H87.46C87.6 14.45 87.79 14.68 88.03 14.82C88.27 14.96 88.49 15.03 88.71 15.03H88.82V15.17H85.64V15.03H85.77C85.95 15.03 86.11 14.95 86.25 14.8C86.39 14.64 86.41 14.42 86.31 14.14L86.3 14.13Z" fill="#C8B081"/>
<path d="M89.94 4.99001C90.03 5.03001 90.18 5.07001 90.37 5.10001C90.56 5.13001 90.78 5.17001 91.01 5.20001C91.25 5.23001 91.46 5.24001 91.66 5.24001L89.93 5.40001V4.99001H89.94ZM98.13 5.24001V5.66001H89.94V5.24001H98.13ZM90.91 5.62001V5.66001C90.67 5.66001 90.48 5.75001 90.32 5.91001C90.16 6.07001 90.08 6.27001 90.08 6.50001V6.74001H89.94V5.61001H90.92L90.91 5.62001ZM93.62 14.13V15.16H92.49V15.02H92.67C92.92 15.02 93.13 14.93 93.3 14.76C93.47 14.59 93.57 14.38 93.58 14.13H93.62ZM94.49 5.30001V15.16H93.57V5.30001H94.49ZM94.45 14.13H94.49C94.49 14.38 94.59 14.59 94.77 14.76C94.95 14.93 95.15 15.02 95.4 15.02H95.58V15.16H94.45V14.13ZM98.13 4.99001V5.40001L96.4 5.24001C96.61 5.24001 96.83 5.23001 97.06 5.20001C97.29 5.17001 97.51 5.14001 97.7 5.10001C97.89 5.06001 98.04 5.02001 98.12 4.99001H98.13ZM98.13 5.62001V6.77001H97.99V6.52001C97.99 6.28001 97.91 6.09001 97.74 5.93001C97.57 5.77001 97.38 5.68001 97.15 5.68001V5.64001H98.13V5.62001Z" fill="#C8B081"/>
<path d="M102.36 6.29001H102.32C102.32 6.04001 102.23 5.83001 102.05 5.66001C101.87 5.49001 101.66 5.40001 101.41 5.40001H101.24V5.26001H102.36V6.29001ZM102.36 14.13V15.16H101.23V15.02H101.41C101.66 15.02 101.87 14.93 102.04 14.76C102.21 14.59 102.31 14.38 102.32 14.13H102.36ZM103.24 5.25001V15.16H102.32V5.25001H103.24ZM107.06 5.25001V5.69001H103.2V5.25001H107.06ZM106.45 10.07V10.49H103.2V10.07H106.45ZM107.06 14.72V15.16H103.2V14.72H107.06ZM107.93 12.87L107.11 15.16H104.76L105.27 14.72C105.77 14.72 106.18 14.64 106.49 14.49C106.81 14.33 107.06 14.11 107.26 13.83C107.46 13.55 107.63 13.23 107.78 12.87H107.92H107.93ZM107.06 5.00001V5.41001L105.33 5.25001C105.54 5.25001 105.76 5.24001 105.99 5.21001C106.22 5.18001 106.44 5.15001 106.63 5.11001C106.83 5.07001 106.97 5.03001 107.05 5.00001H107.06ZM106.45 9.16001V10.09H105.63V10.06C105.82 10.06 105.98 9.98001 106.11 9.84001C106.24 9.70001 106.31 9.54001 106.31 9.35001V9.15001H106.45V9.16001ZM106.45 10.46V11.39H106.31V11.18C106.31 10.99 106.24 10.83 106.11 10.69C105.98 10.55 105.82 10.48 105.63 10.48V10.45H106.45V10.46ZM107.06 5.65001V6.78001H106.92V6.53001C106.92 6.30001 106.84 6.11001 106.68 5.94001C106.52 5.77001 106.32 5.69001 106.09 5.68001V5.65001H107.07H107.06Z" fill="#C8B081"/>
<path d="M43.19 22.04C43.34 22.04 43.5 22.04 43.68 22.07C43.85 22.09 44.02 22.11 44.19 22.15C44.36 22.19 44.51 22.22 44.64 22.25C44.78 22.28 44.88 22.32 44.96 22.36V23.93H44.83C44.83 23.48 44.67 23.12 44.36 22.86C44.05 22.6 43.67 22.47 43.23 22.47C42.71 22.47 42.29 22.63 41.97 22.96C41.65 23.29 41.49 23.67 41.49 24.1C41.49 24.28 41.53 24.49 41.61 24.73C41.69 24.97 41.84 25.19 42.06 25.4L44.85 27.98C45.13 28.24 45.32 28.53 45.42 28.83C45.51 29.13 45.56 29.42 45.56 29.71C45.56 30.49 45.32 31.13 44.85 31.62C44.37 32.11 43.73 32.36 42.92 32.36C42.69 32.36 42.43 32.34 42.12 32.29C41.81 32.24 41.52 32.16 41.23 32.04C40.94 31.92 40.7 31.77 40.52 31.58C40.49 31.43 40.48 31.24 40.48 31.01C40.48 30.78 40.5 30.55 40.54 30.3C40.58 30.05 40.63 29.82 40.7 29.61H40.83C40.78 30.09 40.84 30.51 41.01 30.87C41.18 31.23 41.43 31.5 41.75 31.68C42.08 31.86 42.45 31.95 42.86 31.93C43.38 31.9 43.82 31.72 44.2 31.39C44.57 31.06 44.76 30.6 44.76 30.04C44.76 29.77 44.71 29.52 44.62 29.3C44.53 29.08 44.39 28.89 44.21 28.73L41.49 26.21C41.21 25.95 41.01 25.66 40.9 25.34C40.79 25.02 40.73 24.73 40.73 24.46C40.73 24.06 40.82 23.68 41.01 23.31C41.2 22.94 41.48 22.64 41.85 22.41C42.22 22.18 42.68 22.06 43.22 22.06L43.19 22.04ZM44.96 22.18V22.48H43.88V22.18H44.96Z" fill="#C8B081"/>
<path d="M48.63 21.97C48.72 22.01 48.87 22.05 49.06 22.08C49.25 22.11 49.47 22.15 49.7 22.18C49.94 22.21 50.15 22.22 50.35 22.22L48.62 22.38V21.97H48.63ZM56.82 22.22V22.64H48.63V22.22H56.82ZM49.6 22.61V22.65C49.36 22.65 49.17 22.74 49.01 22.9C48.85 23.06 48.77 23.26 48.77 23.49V23.73H48.63V22.6H49.61L49.6 22.61ZM52.31 31.11V32.14H51.18V32H51.36C51.61 32 51.82 31.91 51.99 31.74C52.16 31.57 52.26 31.36 52.27 31.11H52.31ZM53.18 22.28V32.14H52.26V22.28H53.18ZM53.14 31.11H53.18C53.18 31.36 53.28 31.57 53.46 31.74C53.64 31.91 53.84 32 54.09 32H54.27V32.14H53.14V31.11ZM56.82 21.97V22.38L55.09 22.22C55.3 22.22 55.52 22.21 55.75 22.18C55.98 22.15 56.2 22.12 56.39 22.08C56.58 22.04 56.73 22 56.81 21.97H56.82ZM56.82 22.61V23.76H56.68V23.51C56.68 23.27 56.6 23.08 56.43 22.92C56.26 22.76 56.07 22.67 55.84 22.67V22.63H56.82V22.61Z" fill="#C8B081"/>
<path d="M60.12 31.11C60.05 31.3 60.04 31.46 60.09 31.59C60.14 31.72 60.21 31.82 60.32 31.89C60.43 31.96 60.54 32 60.65 32H60.78V32.14H57.94V32H58.07C58.29 32 58.51 31.93 58.74 31.79C58.97 31.65 59.16 31.42 59.31 31.1H60.12V31.11ZM63.16 22.04L63.29 23.03L59.74 32.1H58.89L62.51 23.49C62.61 23.25 62.7 23.05 62.77 22.88C62.84 22.71 62.9 22.55 62.95 22.38C63 22.22 63.03 22.1 63.03 22.03H63.16V22.04ZM65.16 28.28V28.7H60.73V28.28H65.16ZM63.16 22.04L67.35 32.06H66.15L62.88 23.38L63.16 22.04ZM65.79 31.11H66.95C67.09 31.43 67.28 31.66 67.52 31.8C67.76 31.94 67.98 32.01 68.2 32.01H68.31V32.15H65.13V32.01H65.26C65.44 32.01 65.6 31.93 65.74 31.78C65.88 31.62 65.9 31.4 65.8 31.12L65.79 31.11Z" fill="#C8B081"/>
<path d="M71.38 23.26L70.19 23.22C70.06 23 69.86 22.81 69.61 22.64C69.36 22.47 69.08 22.39 68.78 22.39H68.58V22.25H72.06V22.39H71.88C71.67 22.39 71.51 22.49 71.41 22.68C71.31 22.87 71.29 23.07 71.39 23.27L71.38 23.26ZM70.85 22.25L73.62 27.42L73.01 27.92L69.63 22.26H70.85V22.25ZM72.93 31.11V32.14H71.81V32H71.99C72.24 32 72.45 31.91 72.62 31.74C72.79 31.57 72.89 31.36 72.9 31.11H72.93ZM73.82 27.59V32.15H72.9V27.59H73.82ZM76.34 22.25H77.2L73.72 27.88L73.21 27.72L76.34 22.24V22.25ZM73.78 31.11H73.82C73.82 31.36 73.91 31.57 74.09 31.74C74.27 31.91 74.48 32 74.73 32H74.9V32.14H73.78V31.11ZM75.76 23.26C75.84 23.13 75.87 22.99 75.83 22.86C75.79 22.72 75.72 22.61 75.62 22.52C75.52 22.43 75.4 22.39 75.27 22.39H75.1V22.25H78.24V22.39H78.04C77.75 22.39 77.47 22.47 77.22 22.64C76.97 22.81 76.76 23 76.61 23.22L75.76 23.26Z" fill="#C8B081"/>
<path d="M87.56 23.27H87.52C87.52 23.02 87.42 22.81 87.24 22.64C87.07 22.47 86.86 22.38 86.61 22.38H86.43V22.24H87.56V23.27ZM87.56 31.11V32.14H86.43V32H86.61C86.86 32 87.07 31.91 87.24 31.74C87.41 31.57 87.51 31.36 87.52 31.11H87.56ZM88.44 22.24V32.15H87.52V22.24H88.44ZM88.4 23.27V22.24H89.53V22.38H89.35C89.1 22.38 88.89 22.47 88.72 22.64C88.55 22.81 88.45 23.02 88.44 23.27H88.4ZM88.4 31.11H88.44C88.44 31.36 88.54 31.57 88.72 31.74C88.9 31.91 89.1 32 89.35 32H89.53V32.14H88.4V31.11ZM93.76 22.34L89.53 27.22H88.89L92.78 22.34H93.76ZM89.67 26.7L93.69 31.43C93.89 31.62 94.09 31.76 94.29 31.85C94.49 31.94 94.74 32 95.03 32.01V32.15H94.42C94.33 32.15 94.19 32.15 94.02 32.13C93.85 32.12 93.66 32.08 93.45 32.03C93.24 31.98 93.04 31.9 92.84 31.79C92.64 31.68 92.46 31.53 92.3 31.34C91.97 30.94 91.68 30.59 91.42 30.28C91.16 29.97 90.89 29.64 90.6 29.28C90.31 28.93 90.04 28.59 89.78 28.28C89.52 27.97 89.23 27.61 88.9 27.22L89.68 26.7H89.67ZM94.74 22.24V22.37H94.68C94.37 22.37 94.08 22.43 93.81 22.55C93.54 22.67 93.31 22.84 93.12 23.06L92.23 23.03C92.35 22.87 92.37 22.72 92.29 22.58C92.21 22.44 92.08 22.37 91.89 22.37H91.75V22.24H94.74Z" fill="#C8B081"/>
<path d="M102.51 22.04C103.52 22.04 104.41 22.25 105.17 22.68C105.93 23.11 106.53 23.71 106.96 24.48C107.39 25.25 107.6 26.15 107.6 27.18C107.6 28.21 107.39 29.11 106.96 29.88C106.53 30.65 105.93 31.26 105.17 31.68C104.41 32.11 103.52 32.32 102.51 32.32C101.5 32.32 100.63 32.11 99.86 31.68C99.1 31.25 98.5 30.65 98.07 29.88C97.64 29.11 97.43 28.21 97.43 27.18C97.43 26.15 97.64 25.25 98.07 24.48C98.5 23.71 99.1 23.1 99.86 22.68C100.62 22.25 101.51 22.04 102.51 22.04ZM102.51 31.92C103.31 31.92 104.01 31.72 104.61 31.33C105.21 30.93 105.68 30.38 106.01 29.67C106.34 28.96 106.51 28.14 106.51 27.19C106.51 26.24 106.34 25.42 106.01 24.71C105.68 24 105.21 23.45 104.61 23.05C104.01 22.65 103.31 22.46 102.51 22.46C101.71 22.46 101.02 22.66 100.42 23.05C99.82 23.45 99.35 24 99.02 24.71C98.69 25.42 98.52 26.24 98.52 27.19C98.52 28.14 98.69 28.96 99.02 29.67C99.35 30.38 99.82 30.93 100.42 31.33C101.02 31.73 101.71 31.92 102.51 31.92Z" fill="#C8B081"/>
<path d="M111.97 23.27H111.93C111.93 23.02 111.83 22.81 111.65 22.64C111.48 22.47 111.27 22.38 111.02 22.38H110.84V22.24H111.97V23.27ZM111.97 31.11V32.14H110.84V32H111.02C111.27 32 111.48 31.91 111.65 31.74C111.82 31.57 111.92 31.36 111.93 31.11H111.97ZM112.85 22.24V32.15H111.93V22.24H112.85ZM114.66 22.24C115.08 22.24 115.47 22.3 115.81 22.42C116.15 22.54 116.44 22.72 116.68 22.95C116.92 23.18 117.1 23.46 117.22 23.78C117.35 24.11 117.41 24.48 117.41 24.89C117.41 25.34 117.3 25.78 117.09 26.19C116.88 26.61 116.59 26.94 116.23 27.2C115.87 27.46 115.46 27.59 115.01 27.59C115.17 27.66 115.34 27.79 115.53 27.99C115.72 28.19 115.88 28.39 116.03 28.58C116.28 28.95 116.51 29.26 116.7 29.53C116.89 29.79 117.09 30.05 117.29 30.31C117.49 30.56 117.66 30.77 117.8 30.92C117.99 31.13 118.18 31.31 118.37 31.47C118.56 31.63 118.76 31.76 118.99 31.85C119.21 31.94 119.46 31.99 119.73 31.99V32.13H118.95C118.52 32.13 118.14 32.06 117.83 31.93C117.51 31.8 117.25 31.64 117.03 31.44C116.81 31.25 116.63 31.06 116.48 30.88C116.45 30.84 116.37 30.73 116.25 30.55C116.12 30.37 115.97 30.16 115.8 29.91C115.63 29.66 115.45 29.41 115.28 29.17C115.11 28.93 114.96 28.71 114.84 28.54C114.72 28.37 114.65 28.26 114.63 28.24C114.45 28 114.25 27.79 114.04 27.59C113.82 27.39 113.59 27.29 113.33 27.29V27.15C113.62 27.15 113.87 27.15 114.08 27.15C114.33 27.15 114.59 27.1 114.89 27.04C115.18 26.97 115.46 26.84 115.71 26.63C115.96 26.42 116.16 26.11 116.29 25.68C116.32 25.58 116.34 25.45 116.36 25.29C116.38 25.13 116.38 24.98 116.37 24.83C116.37 24.19 116.2 23.68 115.88 23.29C115.56 22.91 115.14 22.7 114.61 22.67C114.35 22.65 114.07 22.64 113.8 22.65C113.52 22.65 113.19 22.65 112.82 22.65C112.82 22.65 112.81 22.6 112.78 22.53C112.76 22.46 112.72 22.35 112.67 22.21H114.67L114.66 22.24ZM112.81 31.11H112.85C112.85 31.36 112.94 31.57 113.12 31.74C113.3 31.91 113.51 32 113.76 32H113.93V32.14H112.81V31.11Z" fill="#C8B081"/>
<path d="M123.11 23.27H123.07C123.07 23.02 122.98 22.81 122.8 22.64C122.62 22.47 122.41 22.38 122.16 22.38H121.99V22.24H123.11V23.27ZM123.11 31.11V32.14H121.98V32H122.16C122.41 32 122.62 31.91 122.79 31.74C122.96 31.57 123.06 31.36 123.07 31.11H123.11ZM123.99 22.24V32.15H123.07V22.24H123.99ZM127.81 22.24V22.68H123.95V22.24H127.81ZM127.2 27.05V27.47H123.95V27.05H127.2ZM127.81 31.71V32.15H123.95V31.71H127.81ZM128.68 29.85L127.86 32.14H125.51L126.02 31.7C126.52 31.7 126.93 31.62 127.24 31.47C127.56 31.31 127.81 31.09 128.01 30.81C128.21 30.53 128.38 30.21 128.53 29.85H128.67H128.68ZM127.81 21.98V22.39L126.08 22.23C126.29 22.23 126.51 22.22 126.74 22.19C126.97 22.16 127.19 22.13 127.38 22.09C127.58 22.05 127.72 22.01 127.8 21.98H127.81ZM127.2 26.14V27.07H126.38V27.04C126.57 27.04 126.73 26.96 126.86 26.82C126.99 26.68 127.06 26.52 127.06 26.33V26.13H127.2V26.14ZM127.2 27.45V28.38H127.06V28.17C127.06 27.98 126.99 27.82 126.86 27.68C126.73 27.54 126.57 27.47 126.38 27.47V27.44H127.2V27.45ZM127.81 22.63V23.76H127.67V23.51C127.67 23.28 127.59 23.09 127.43 22.92C127.27 22.75 127.07 22.67 126.84 22.66V22.63H127.82H127.81Z" fill="#C8B081"/>
<path d="M133.32 31.11C133.25 31.3 133.24 31.46 133.29 31.59C133.34 31.72 133.41 31.82 133.52 31.89C133.63 31.96 133.74 32 133.85 32H133.98V32.14H131.14V32H131.27C131.49 32 131.71 31.93 131.94 31.79C132.17 31.65 132.36 31.42 132.51 31.1H133.32V31.11ZM136.36 22.04L136.49 23.03L132.94 32.1H132.09L135.71 23.49C135.81 23.25 135.9 23.05 135.97 22.88C136.04 22.71 136.1 22.55 136.15 22.38C136.2 22.22 136.23 22.1 136.23 22.03H136.36V22.04ZM138.36 28.28V28.7H133.93V28.28H138.36ZM136.36 22.04L140.55 32.06H139.35L136.08 23.38L136.36 22.04ZM138.99 31.11H140.15C140.29 31.43 140.48 31.66 140.72 31.8C140.96 31.94 141.18 32.01 141.4 32.01H141.51V32.15H138.33V32.01H138.46C138.64 32.01 138.8 31.93 138.94 31.78C139.08 31.62 139.1 31.4 139 31.12L138.99 31.11Z" fill="#C8B081"/>
<path d="M34.82 0.830002L0 29.09C0 29.09 3.9 28.77 9.49 30.78L34.82 0.830002Z" fill="#C8B081"/>
<path d="M13.17 14.31L18.62 10.28L2.77 7.85L1.43 9.19L13.17 14.31Z" fill="#C8B081"/>
<path d="M18.16 17.82L22.48 33.17L25.48 30.76L23 12.98L18.16 17.82Z" fill="#C8B081"/>
</svg>
